<mxfile host="65bd71144e">
    <diagram id="TUZ9deCKE5P3scAR7Vms" name="Page-1">
        <mxGraphModel dx="1030" dy="734" grid="1" gridSize="10" guides="1" tooltips="1" connect="1" arrows="1" fold="1" page="1" pageScale="1" pageWidth="850" pageHeight="1100" math="0" shadow="0">
            <root>
                <mxCell id="0"/>
                <mxCell id="1" parent="0"/>
                <mxCell id="81" value="" style="rounded=1;whiteSpace=wrap;html=1;" vertex="1" parent="1">
                    <mxGeometry x="563" y="291" width="270" height="550" as="geometry"/>
                </mxCell>
                <mxCell id="80" value="" style="rounded=1;whiteSpace=wrap;html=1;" vertex="1" parent="1">
                    <mxGeometry x="20" y="311" width="500" height="510" as="geometry"/>
                </mxCell>
                <mxCell id="76" value="" style="rounded=1;whiteSpace=wrap;html=1;" vertex="1" parent="1">
                    <mxGeometry x="40" y="421" width="160" height="180" as="geometry"/>
                </mxCell>
                <mxCell id="74" style="edgeStyle=orthogonalEdgeStyle;html=1;entryX=0.5;entryY=1;entryDx=0;entryDy=0;elbow=vertical;" edge="1" parent="1" source="71" target="72">
                    <mxGeometry relative="1" as="geometry"/>
                </mxCell>
                <mxCell id="71" value="" style="rounded=1;whiteSpace=wrap;html=1;" vertex="1" parent="1">
                    <mxGeometry x="593" y="421" width="180" height="240" as="geometry"/>
                </mxCell>
                <mxCell id="52" style="edgeStyle=none;html=1;entryX=0;entryY=0.5;entryDx=0;entryDy=0;" edge="1" parent="1" source="48" target="50">
                    <mxGeometry relative="1" as="geometry">
                        <Array as="points">
                            <mxPoint x="220" y="541"/>
                            <mxPoint x="220" y="511"/>
                        </Array>
                    </mxGeometry>
                </mxCell>
                <mxCell id="48" value="Service" style="rounded=1;whiteSpace=wrap;html=1;" vertex="1" parent="1">
                    <mxGeometry x="60" y="511" width="120" height="60" as="geometry"/>
                </mxCell>
                <mxCell id="51" style="edgeStyle=none;html=1;entryX=0;entryY=0.5;entryDx=0;entryDy=0;" edge="1" parent="1" source="49" target="50">
                    <mxGeometry relative="1" as="geometry">
                        <Array as="points">
                            <mxPoint x="220" y="481"/>
                            <mxPoint x="220" y="511"/>
                        </Array>
                    </mxGeometry>
                </mxCell>
                <mxCell id="49" value="Pipelines" style="rounded=1;whiteSpace=wrap;html=1;" vertex="1" parent="1">
                    <mxGeometry x="60" y="451" width="120" height="60" as="geometry"/>
                </mxCell>
                <mxCell id="75" style="edgeStyle=orthogonalEdgeStyle;html=1;entryX=0.5;entryY=1;entryDx=0;entryDy=0;elbow=vertical;" edge="1" parent="1" source="50" target="73">
                    <mxGeometry relative="1" as="geometry"/>
                </mxCell>
                <mxCell id="50" value="Deployment manager" style="rounded=1;whiteSpace=wrap;html=1;" vertex="1" parent="1">
                    <mxGeometry x="262" y="451" width="240" height="120" as="geometry"/>
                </mxCell>
                <mxCell id="57" style="edgeStyle=elbowEdgeStyle;elbow=vertical;html=1;" edge="1" parent="1" source="53" target="50">
                    <mxGeometry relative="1" as="geometry">
                        <Array as="points">
                            <mxPoint x="340" y="671"/>
                        </Array>
                    </mxGeometry>
                </mxCell>
                <mxCell id="53" value="ML model 1" style="rounded=1;whiteSpace=wrap;html=1;" vertex="1" parent="1">
                    <mxGeometry x="60" y="641" width="120" height="60" as="geometry"/>
                </mxCell>
                <mxCell id="58" style="edgeStyle=elbowEdgeStyle;elbow=vertical;html=1;entryX=0.5;entryY=1;entryDx=0;entryDy=0;" edge="1" parent="1" source="54" target="50">
                    <mxGeometry relative="1" as="geometry">
                        <Array as="points">
                            <mxPoint x="280" y="751"/>
                        </Array>
                    </mxGeometry>
                </mxCell>
                <mxCell id="54" value="ML model n" style="rounded=1;whiteSpace=wrap;html=1;" vertex="1" parent="1">
                    <mxGeometry x="60" y="721" width="120" height="60" as="geometry"/>
                </mxCell>
                <mxCell id="60" value="Service" style="rounded=1;whiteSpace=wrap;html=1;" vertex="1" parent="1">
                    <mxGeometry x="623" y="511" width="120" height="60" as="geometry"/>
                </mxCell>
                <mxCell id="62" value="Pipelines" style="rounded=1;whiteSpace=wrap;html=1;" vertex="1" parent="1">
                    <mxGeometry x="623" y="451" width="120" height="60" as="geometry"/>
                </mxCell>
                <mxCell id="63" value="Dependency config aka a file" style="rounded=1;whiteSpace=wrap;html=1;" vertex="1" parent="1">
                    <mxGeometry x="623" y="571" width="120" height="60" as="geometry"/>
                </mxCell>
                <mxCell id="69" style="edgeStyle=orthogonalEdgeStyle;html=1;elbow=vertical;entryX=1;entryY=0.5;entryDx=0;entryDy=0;" edge="1" parent="1" source="65" target="63">
                    <mxGeometry relative="1" as="geometry">
                        <mxPoint x="783" y="601" as="targetPoint"/>
                        <Array as="points">
                            <mxPoint x="783" y="711"/>
                            <mxPoint x="783" y="601"/>
                        </Array>
                    </mxGeometry>
                </mxCell>
                <mxCell id="65" value="ML model 1" style="rounded=1;whiteSpace=wrap;html=1;" vertex="1" parent="1">
                    <mxGeometry x="623" y="681" width="120" height="60" as="geometry"/>
                </mxCell>
                <mxCell id="70" style="edgeStyle=orthogonalEdgeStyle;html=1;elbow=vertical;" edge="1" parent="1" source="67">
                    <mxGeometry relative="1" as="geometry">
                        <mxPoint x="743" y="601" as="targetPoint"/>
                        <Array as="points">
                            <mxPoint x="813" y="791"/>
                            <mxPoint x="813" y="601"/>
                        </Array>
                    </mxGeometry>
                </mxCell>
                <mxCell id="67" value="ML model n" style="rounded=1;whiteSpace=wrap;html=1;" vertex="1" parent="1">
                    <mxGeometry x="623" y="761" width="120" height="60" as="geometry"/>
                </mxCell>
                <mxCell id="72" value="Deployment n" style="rounded=1;whiteSpace=wrap;html=1;sketch=1;curveFitting=1;jiggle=2;shadow=0;" vertex="1" parent="1">
                    <mxGeometry x="623" y="311" width="120" height="60" as="geometry"/>
                </mxCell>
                <mxCell id="73" value="Deployment n" style="rounded=1;whiteSpace=wrap;html=1;glass=0;sketch=1;curveFitting=1;jiggle=2;" vertex="1" parent="1">
                    <mxGeometry x="322" y="351" width="120" height="60" as="geometry"/>
                </mxCell>
                <mxCell id="78" value="Main repo" style="text;html=1;strokeColor=none;fillColor=none;align=center;verticalAlign=middle;whiteSpace=wrap;rounded=0;" vertex="1" parent="1">
                    <mxGeometry x="50" y="421" width="60" height="30" as="geometry"/>
                </mxCell>
                <mxCell id="79" value="Main repo" style="text;html=1;strokeColor=none;fillColor=none;align=center;verticalAlign=middle;whiteSpace=wrap;rounded=0;" vertex="1" parent="1">
                    <mxGeometry x="603" y="421" width="60" height="30" as="geometry"/>
                </mxCell>
                <mxCell id="84" value="In any case, there is a deployment state log - either as a separate entity, a deployment manager, or as a part of the main repo itself - could be a config (treating models as dependencies), or a bunch of tags (treating the readers eyeballs with disrespect)" style="shape=note;whiteSpace=wrap;html=1;backgroundOutline=1;fontColor=#000000;darkOpacity=0.05;fillColor=#FFF9B2;strokeColor=none;fillStyle=solid;direction=west;gradientDirection=north;gradientColor=#FFF2A1;shadow=1;size=20;pointerEvents=1;fontStyle=1" vertex="1" parent="1">
                    <mxGeometry x="40" y="40" width="180" height="190" as="geometry"/>
                </mxCell>
            </root>
        </mxGraphModel>
    </diagram>
</mxfile>
